<svg xmlns="http://www.w3.org/2000/svg" version="1.1" xmlns:xlink="http://www.w3.org/1999/xlink" width="512" height="512" x="0" y="0" viewBox="0 0 426.403 426.403" style="enable-background:new 0 0 512 512" xml:space="preserve" class=""><g><path d="M213.203 247.469c-28.454 0-51.52 23.066-51.52 51.52s23.066 51.52 51.52 51.52 51.52-23.066 51.52-51.52c-.038-28.438-23.082-51.482-51.52-51.52zm8 87.6v2.56a8 8 0 0 1-16 0v-2.56a25.498 25.498 0 0 1-14.88-10.56 8.015 8.015 0 0 1 13.6-8.48 11.037 11.037 0 0 0 9.28 4.24c8.56 0 14.8-7.76 5.04-12.32a22.284 22.284 0 0 0-6.08-1.12 33.879 33.879 0 0 1-11.76-2.8c-19.6-9.76-16.88-34.96 4.8-41.12v-2.56a8 8 0 0 1 16 0v2.56a26.214 26.214 0 0 1 14.64 10.16 8.032 8.032 0 0 1-2.459 11.091 8.033 8.033 0 0 1-10.981-2.291 10.893 10.893 0 0 0-9.2-4.16c-8.64 0-14.32 7.68-5.68 12a20.059 20.059 0 0 0 6.24 1.2 32.992 32.992 0 0 1 11.36 2.56c20.88 9.839 17.76 35.439-3.92 41.6z" fill="#00b5b7" opacity="1" data-original="#000000" class=""></path><path d="m338.643 234.589-20.48 19.04a19.67 19.67 0 0 1-24.4 2.16l-148.16-100.64c-4.64 4.56-9.28 9.44-13.76 14.48-6.4 7.2-87.76 107.6-59.04 172.16 18.16 40.72 79.36 51.52 140.48 51.04 57.68-.48 113.6.72 135.68-36.48 20.08-33.84 9.2-81.201-10.32-121.76zm-125.44 131.92c-37.29 0-67.52-30.23-67.52-67.52s30.23-67.52 67.52-67.52 67.52 30.23 67.52 67.52c-.064 37.263-30.256 67.456-67.52 67.52z" fill="#00b5b7" opacity="1" data-original="#000000" class=""></path><path d="M426.403 261.388a3.143 3.143 0 0 1-3.084 3.2h-.036l-38.16-.64a.954.954 0 0 1-.72-1.6l10.16-10.16-47.28-43.04a3.704 3.704 0 0 0-5.04.16l-11.28 10.48-23.68 22.16a3.753 3.753 0 0 1-4.72.4l-145.04-98.48-43.76-29.68-29.92 29.84a2.329 2.329 0 0 1-2.88.4l-78.64-46.56a4.171 4.171 0 0 1-1.92-3.28l-.4-31.52a1.579 1.579 0 0 1 2.4-1.44l78.16 46.24 29.84-29.84a2.412 2.412 0 0 1 3.04-.24l69.04 46.88 118.08 80.24a3.85 3.85 0 0 0 4.72-.4l10.32-9.68 24.64-23.04a3.895 3.895 0 0 1 5.12-.16l67.92 61.84 10-10a.969.969 0 0 1 1.68.64z" fill="#00b5b7" opacity="1" data-original="#000000" class=""></path><path d="M271.203 74.908a252.106 252.106 0 0 0-12.08 32.64 7.971 7.971 0 0 1-2.08 3.44 74.465 74.465 0 0 0-40.24-14.72h-.8a75.31 75.31 0 0 0-32.8 9.6l-24.08-16.4c-4.72-13.12-9.84-26.64-19.68-31.68-9.04-4.72 7.12-16.96 16.56-22.08 13.84-7.68 22.32 7.6 49.52 8.88 20.08 1.04 25.36-5.2 57.92-6.08 23.04-.64 25.44 4.24 25.92 5.6 2.08 6.08-8.88 12.8-18.16 30.8zM304.083 179.388c-29.92-37.28-63.2-67.6-87.84-67.12a49.704 49.704 0 0 0-17.6 4l102.8 69.84 4.56-4.24c-.56-.799-1.28-1.68-1.92-2.48z" fill="#00b5b7" opacity="1" data-original="#000000" class=""></path></g></svg>