<svg xmlns="http://www.w3.org/2000/svg" version="1.1" xmlns:xlink="http://www.w3.org/1999/xlink" width="512" height="512" x="0" y="0" viewBox="0 0 512 512" style="enable-background:new 0 0 512 512" xml:space="preserve" class=""><g><path d="M486.445 313.088c-18.326-14.669-45.244-15.801-64.82-.99l-.586.439c-31.265-36.157-82.466-62.019-96.382-68.63 1.472-13.677 1.362-26.175-.016-37.564.849-2.359 1.835-4.62 2.834-6.871 18.444-.061 57.422-3.341 81.695-27.966 24.404-24.758 27.045-64.044 26.814-82.384a10.491 10.491 0 0 0-10.543-10.387c-18.334.043-57.556 3.27-81.957 28.025-19.301 19.581-24.983 48.26-26.404 68.457l-.003-.008c.025-24.074-4.02-76.72-37.111-109.337-32.852-32.38-84.982-35.883-109.318-35.576a13.92 13.92 0 0 0-13.783 13.99c.057 24.328 4.339 76.372 37.187 108.749 33.644 33.161 87.503 36.025 110.978 35.542 4.532 15.688 6.327 34.364 3.562 56.574-14.465 7.059-51.522 26.579-80.429 53.681-21.698-10.705-48.287-10.295-69.966 3.136l-40.266 24.951-1.811-3.762c-4.222-8.771-14.754-12.458-23.525-8.236l-65.408 31.105c-8.77 4.222-12.457 14.754-8.236 23.524l49.186 102.185c4.222 8.771 14.754 12.458 23.525 8.236l65.408-31.105c8.77-4.222 12.458-14.754 8.236-23.524l-.222-.46c9.529-3.304 20.295-2.089 28.992 4.014l26.131 18.335c36.666 25.684 80.808 15.69 125.214 2.521 26.494-7.795 32.822-20.059 140.735-101.613 11.374-8.776 11.567-25.971.289-35.051zm-168.531-54.841c12.919 6.201 61.422 30.859 90.392 63.839l-39.532 29.643c-2.519-14.931-15.651-26.812-32.46-26.245l-65.892 2.773c-6.495.381-12.593-2.665-16.425-7.856-3.559-4.821-7.68-9.011-12.15-12.675 28.499-25.664 65.106-44.217 76.067-49.479zm158.554 77.366c-112.264 85.197-113.724 92.539-135.534 98.948-36.716 10.902-80.216 21.698-111.637-.294l-26.129-18.33c-13.508-9.478-30.387-11.182-45.019-5.463l-33.311-69.204 41.699-25.838c24.662-15.289 57.487-8.969 74.719 14.371 6.964 9.433 18.193 14.758 29.83 14.278l65.892-2.773c9.043-.376 16.441 6.832 16.441 15.763 0 7.835-5.853 14.552-13.613 15.629l-89.619 12.418a7.916 7.916 0 0 0-6.755 8.928c.6 4.328 4.6 7.358 8.93 6.753l89.619-12.418c8.528-1.179 15.813-5.831 20.737-12.318l68.436-51.316c13.755-10.418 32.667-9.488 45.376.686 3.216 2.596 3.287 7.59-.062 10.18z" fill="#00b5b7" opacity="1" data-original="#000000" class=""></path></g></svg>